<?xml version="1.0" encoding="UTF-8" standalone="no"?>
<!DOCTYPE svg PUBLIC "-//W3C//DTD SVG 1.1//EN"
 "http://www.w3.org/Graphics/SVG/1.1/DTD/svg11.dtd">
<!-- Generated by graphviz version 2.42.4 (0)
 -->
<!-- Title: OPT3_UML Pages: 1 -->
<svg width="1495pt" height="1221pt"
 viewBox="0.00 0.00 1494.80 1220.80" xmlns="http://www.w3.org/2000/svg" xmlns:xlink="http://www.w3.org/1999/xlink">
<g id="graph0" class="graph" transform="scale(1 1) rotate(0) translate(14.4 1206.4)">
<title>OPT3_UML</title>
<polygon fill="white" stroke="transparent" points="-14.4,14.4 -14.4,-1206.4 1480.4,-1206.4 1480.4,14.4 -14.4,14.4"/>
<g id="clust1" class="cluster">
<title>cluster_util</title>
<path fill="white" stroke="#7a8ba6" d="M1290,-543C1290,-543 1446,-543 1446,-543 1452,-543 1458,-549 1458,-555 1458,-555 1458,-610 1458,-610 1458,-616 1452,-622 1446,-622 1446,-622 1290,-622 1290,-622 1284,-622 1278,-616 1278,-610 1278,-610 1278,-555 1278,-555 1278,-549 1284,-543 1290,-543"/>
<text text-anchor="middle" x="1368" y="-608.4" font-family="Arial Bold" font-size="12.00">util</text>
</g>
<g id="clust2" class="cluster">
<title>cluster_app</title>
<path fill="white" stroke="#7a8ba6" d="M39,-731C39,-731 158,-731 158,-731 164,-731 170,-737 170,-743 170,-743 170,-820 170,-820 170,-826 164,-832 158,-832 158,-832 39,-832 39,-832 33,-832 27,-826 27,-820 27,-820 27,-743 27,-743 27,-737 33,-731 39,-731"/>
<text text-anchor="middle" x="98.5" y="-818.4" font-family="Arial Bold" font-size="12.00">app</text>
</g>
<g id="clust3" class="cluster">
<title>cluster_models</title>
<path fill="white" stroke="#7a8ba6" d="M285,-731C285,-731 1164.5,-731 1164.5,-731 1170.5,-731 1176.5,-737 1176.5,-743 1176.5,-743 1176.5,-1172 1176.5,-1172 1176.5,-1178 1170.5,-1184 1164.5,-1184 1164.5,-1184 285,-1184 285,-1184 279,-1184 273,-1178 273,-1172 273,-1172 273,-743 273,-743 273,-737 279,-731 285,-731"/>
<text text-anchor="middle" x="724.75" y="-1170.4" font-family="Arial Bold" font-size="12.00">models</text>
</g>
<g id="clust4" class="cluster">
<title>cluster_observer</title>
<path fill="white" stroke="#7a8ba6" d="M646.5,-511C646.5,-511 1163.5,-511 1163.5,-511 1169.5,-511 1175.5,-517 1175.5,-523 1175.5,-523 1175.5,-711 1175.5,-711 1175.5,-717 1169.5,-723 1163.5,-723 1163.5,-723 646.5,-723 646.5,-723 640.5,-723 634.5,-717 634.5,-711 634.5,-711 634.5,-523 634.5,-523 634.5,-517 640.5,-511 646.5,-511"/>
<text text-anchor="middle" x="905" y="-709.4" font-family="Arial Bold" font-size="12.00">observer</text>
</g>
<g id="clust5" class="cluster">
<title>cluster_strategy</title>
<path fill="white" stroke="#7a8ba6" d="M641,-95C641,-95 1188,-95 1188,-95 1194,-95 1200,-101 1200,-107 1200,-107 1200,-328 1200,-328 1200,-334 1194,-340 1188,-340 1188,-340 641,-340 641,-340 635,-340 629,-334 629,-328 629,-328 629,-107 629,-107 629,-101 635,-95 641,-95"/>
<text text-anchor="middle" x="914.5" y="-326.4" font-family="Arial Bold" font-size="12.00">strategy</text>
</g>
<g id="clust6" class="cluster">
<title>cluster_template</title>
<path fill="white" stroke="#7a8ba6" d="M20,-523C20,-523 463.5,-523 463.5,-523 469.5,-523 475.5,-529 475.5,-535 475.5,-535 475.5,-711 475.5,-711 475.5,-717 469.5,-723 463.5,-723 463.5,-723 20,-723 20,-723 14,-723 8,-717 8,-711 8,-711 8,-535 8,-535 8,-529 14,-523 20,-523"/>
<text text-anchor="middle" x="241.75" y="-709.4" font-family="Arial Bold" font-size="12.00">template</text>
</g>
<g id="clust7" class="cluster">
<title>cluster_service</title>
<path fill="white" stroke="#7a8ba6" d="M648.5,-8C648.5,-8 827.5,-8 827.5,-8 833.5,-8 839.5,-14 839.5,-20 839.5,-20 839.5,-75 839.5,-75 839.5,-81 833.5,-87 827.5,-87 827.5,-87 648.5,-87 648.5,-87 642.5,-87 636.5,-81 636.5,-75 636.5,-75 636.5,-20 636.5,-20 636.5,-14 642.5,-8 648.5,-8"/>
<text text-anchor="middle" x="738" y="-73.4" font-family="Arial Bold" font-size="12.00">service</text>
</g>
<!-- Validatie -->
<g id="node1" class="node">
<title>Validatie</title>
<polygon fill="#e8eef7" stroke="transparent" points="1286,-572 1286,-593 1450,-593 1450,-572 1286,-572"/>
<polygon fill="none" stroke="black" points="1286,-572 1286,-593 1450,-593 1450,-572 1286,-572"/>
<text text-anchor="start" x="1333" y="-581" font-family="Arial" font-weight="bold" font-size="10.00">utility Validatie</text>
<polygon fill="none" stroke="black" points="1286,-551 1286,-572 1450,-572 1450,-551 1286,-551"/>
<text text-anchor="start" x="1291" y="-559" font-family="Arial" font-size="10.00">+ vereisTekst(String, String): String</text>
</g>
<!-- Main -->
<g id="node2" class="node">
<title>Main</title>
<polygon fill="#e8eef7" stroke="transparent" points="35.5,-781 35.5,-802 162.5,-802 162.5,-781 35.5,-781"/>
<polygon fill="none" stroke="black" points="35.5,-781 35.5,-802 162.5,-802 162.5,-781 35.5,-781"/>
<text text-anchor="start" x="74" y="-790" font-family="Arial" font-weight="bold" font-size="10.00">class Main</text>
<polygon fill="none" stroke="black" points="35.5,-760 35.5,-781 162.5,-781 162.5,-760 35.5,-760"/>
<text text-anchor="start" x="40.5" y="-768" font-family="Arial" font-size="10.00">&#45; Main()</text>
<polygon fill="none" stroke="black" points="35.5,-739 35.5,-760 162.5,-760 162.5,-739 35.5,-739"/>
<text text-anchor="start" x="40.5" y="-747" font-family="Arial" font-size="10.00">+ main(args: String[]): void</text>
</g>
<!-- COAMedewerker -->
<g id="node8" class="node">
<title>COAMedewerker</title>
<polygon fill="#e8eef7" stroke="transparent" points="283.5,-891 283.5,-912 488.5,-912 488.5,-891 283.5,-891"/>
<polygon fill="none" stroke="black" points="283.5,-891 283.5,-912 488.5,-912 488.5,-891 283.5,-891"/>
<text text-anchor="start" x="333" y="-900" font-family="Arial" font-weight="bold" font-size="10.00">class COAMedewerker</text>
<polygon fill="none" stroke="black" points="283.5,-859 283.5,-891 488.5,-891 488.5,-859 283.5,-859"/>
<text text-anchor="start" x="288.5" y="-878" font-family="Arial" font-size="10.00">&#45; naam: String</text>
<text text-anchor="start" x="288.5" y="-867" font-family="Arial" font-size="10.00">&#45; context: PlaatsingsContext</text>
<polygon fill="none" stroke="black" points="283.5,-838 283.5,-859 488.5,-859 488.5,-838 283.5,-838"/>
<text text-anchor="start" x="288.5" y="-846" font-family="Arial" font-size="10.00">+ voerAutomatischePlaatsing(...): Gemeente</text>
</g>
<!-- Main&#45;&gt;COAMedewerker -->
<g id="edge24" class="edge">
<title>Main&#45;&gt;COAMedewerker</title>
<path fill="none" stroke="black" d="M99,-802.77C99,-833.35 99,-875 99,-875 99,-875 275.88,-875 275.88,-875"/>
<polygon fill="black" stroke="black" points="282.88,-875 275.88,-878.15 279.38,-875 275.88,-875 275.88,-875 275.88,-875 279.38,-875 275.88,-871.85 282.88,-875 282.88,-875"/>
<text text-anchor="middle" x="231" y="-885.8" font-family="Arial" font-size="9.00">start</text>
</g>
<!-- Beheerder -->
<g id="node10" class="node">
<title>Beheerder</title>
<polygon fill="#e8eef7" stroke="transparent" points="281.5,-792 281.5,-813 490.5,-813 490.5,-792 281.5,-792"/>
<polygon fill="none" stroke="black" points="281.5,-792 281.5,-813 490.5,-813 490.5,-792 281.5,-792"/>
<text text-anchor="start" x="348" y="-801" font-family="Arial" font-weight="bold" font-size="10.00">class Beheerder</text>
<polygon fill="none" stroke="black" points="281.5,-760 281.5,-792 490.5,-792 490.5,-760 281.5,-760"/>
<text text-anchor="start" x="286.5" y="-779" font-family="Arial" font-size="10.00">&#45; naam: String</text>
<text text-anchor="start" x="286.5" y="-768" font-family="Arial" font-size="10.00">&#45; rapportageService: RapportageService</text>
<polygon fill="none" stroke="black" points="281.5,-739 281.5,-760 490.5,-760 490.5,-739 281.5,-739"/>
<text text-anchor="start" x="286.5" y="-747" font-family="Arial" font-size="10.00">+ vraagRapportageOp(List&lt;Gemeente&gt;): void</text>
</g>
<!-- Main&#45;&gt;Beheerder -->
<g id="edge27" class="edge">
<title>Main&#45;&gt;Beheerder</title>
<path fill="none" stroke="black" d="M162.19,-786.75C162.19,-786.75 273.84,-786.75 273.84,-786.75"/>
<polygon fill="black" stroke="black" points="280.84,-786.75 273.84,-789.9 277.34,-786.75 273.84,-786.75 273.84,-786.75 273.84,-786.75 277.34,-786.75 273.84,-783.6 280.84,-786.75 280.84,-786.75"/>
<text text-anchor="middle" x="231" y="-765.8" font-family="Arial" font-size="9.00">start</text>
</g>
<!-- Berichtenbox -->
<g id="node14" class="node">
<title>Berichtenbox</title>
<polygon fill="#e8eef7" stroke="transparent" points="643,-583 643,-604 834,-604 834,-583 643,-583"/>
<polygon fill="none" stroke="black" points="643,-583 643,-604 834,-604 834,-583 643,-583"/>
<text text-anchor="start" x="693.5" y="-592" font-family="Arial" font-weight="bold" font-size="10.00">class Berichtenbox</text>
<polygon fill="none" stroke="black" points="643,-562 643,-583 834,-583 834,-562 643,-562"/>
<text text-anchor="start" x="648" y="-570" font-family="Arial" font-size="10.00">&#45; berichten: List&lt;Bericht&gt;</text>
<polygon fill="none" stroke="black" points="643,-519 643,-562 834,-562 834,-519 643,-519"/>
<text text-anchor="start" x="648" y="-549" font-family="Arial" font-size="10.00">+ update(Bericht): void</text>
<text text-anchor="start" x="648" y="-538" font-family="Arial" font-size="10.00">+ getOngelezenBerichten(): List&lt;Bericht&gt;</text>
<text text-anchor="start" x="663" y="-527" font-family="Arial" font-size="10.00">+ getAlleBerichten(): List&lt;Bericht&gt;</text>
</g>
<!-- Main&#45;&gt;Berichtenbox -->
<g id="edge26" class="edge">
<title>Main&#45;&gt;Berichtenbox</title>
<path fill="none" stroke="black" d="M162.28,-755.25C185.42,-755.25 206,-755.25 206,-755.25 206,-755.25 206,-567.75 206,-567.75 206,-567.75 635.27,-567.75 635.27,-567.75"/>
<polygon fill="black" stroke="black" points="642.27,-567.75 635.27,-570.9 638.77,-567.75 635.27,-567.75 635.27,-567.75 635.27,-567.75 638.77,-567.75 635.27,-564.6 642.27,-567.75 642.27,-567.75"/>
<text text-anchor="middle" x="385.5" y="-504.8" font-family="Arial" font-size="9.00">start</text>
</g>
<!-- ActieVerwerker -->
<g id="node19" class="node">
<title>ActieVerwerker</title>
<polygon fill="#e8eef7" stroke="transparent" points="303.5,-673 303.5,-694 467.5,-694 467.5,-673 303.5,-673"/>
<polygon fill="none" stroke="black" points="303.5,-673 303.5,-694 467.5,-694 467.5,-673 303.5,-673"/>
<text text-anchor="start" x="331" y="-682" font-family="Arial" font-weight="bold" font-size="10.00">abstract ActieVerwerker</text>
<polygon fill="none" stroke="black" points="303.5,-608 303.5,-673 467.5,-673 467.5,-608 303.5,-608"/>
<text text-anchor="start" x="308.5" y="-660" font-family="Arial" font-size="10.00">+ verwerkActie(): void</text>
<text text-anchor="start" x="308.5" y="-649" font-family="Arial" font-size="10.00"># controleerVoorwaarden(): boolean</text>
<text text-anchor="start" x="308.5" y="-638" font-family="Arial" font-size="10.00"># voerHoofdActieUit(): void</text>
<text text-anchor="start" x="308.5" y="-627" font-family="Arial" font-size="10.00"># werkAdministratieBij(): void</text>
<text text-anchor="start" x="324" y="-616" font-family="Arial" font-size="10.00"># geefTerugkoppeling(): void</text>
</g>
<!-- Main&#45;&gt;ActieVerwerker -->
<g id="edge25" class="edge">
<title>Main&#45;&gt;ActieVerwerker</title>
<path fill="none" stroke="black" d="M162.11,-771C205.82,-771 256,-771 256,-771 256,-771 256,-672.5 256,-672.5 256,-672.5 296.49,-672.5 296.49,-672.5"/>
<polygon fill="black" stroke="black" points="303.49,-672.5 296.49,-675.65 299.99,-672.5 296.49,-672.5 296.49,-672.5 296.49,-672.5 299.99,-672.5 296.49,-669.35 303.49,-672.5 303.49,-672.5"/>
<text text-anchor="middle" x="231" y="-706.8" font-family="Arial" font-size="9.00">start</text>
</g>
<!-- Land -->
<g id="node3" class="node">
<title>Land</title>
<polygon fill="#e8eef7" stroke="transparent" points="690,-1117 690,-1138 787,-1138 787,-1117 690,-1117"/>
<polygon fill="none" stroke="black" points="690,-1117 690,-1138 787,-1138 787,-1117 690,-1117"/>
<text text-anchor="start" x="713" y="-1126" font-family="Arial" font-weight="bold" font-size="10.00">class Land</text>
<polygon fill="none" stroke="black" points="690,-1085 690,-1117 787,-1117 787,-1085 690,-1085"/>
<text text-anchor="start" x="695" y="-1104" font-family="Arial" font-size="10.00">&#45; naam: String</text>
<text text-anchor="start" x="695" y="-1093" font-family="Arial" font-size="10.00">&#45; veilig: boolean</text>
<polygon fill="none" stroke="black" points="690,-1042 690,-1085 787,-1085 787,-1042 690,-1042"/>
<text text-anchor="start" x="695" y="-1072" font-family="Arial" font-size="10.00">+ Land(...)</text>
<text text-anchor="start" x="695" y="-1061" font-family="Arial" font-size="10.00">+ getNaam(): String</text>
<text text-anchor="start" x="695.5" y="-1050" font-family="Arial" font-size="10.00">+ isVeilig(): boolean</text>
</g>
<!-- Vluchteling -->
<g id="node4" class="node">
<title>Vluchteling</title>
<polygon fill="#e8eef7" stroke="transparent" points="323.5,-1133 323.5,-1154 448.5,-1154 448.5,-1133 323.5,-1133"/>
<polygon fill="none" stroke="black" points="323.5,-1133 323.5,-1154 448.5,-1154 448.5,-1133 323.5,-1133"/>
<text text-anchor="start" x="345.5" y="-1142" font-family="Arial" font-weight="bold" font-size="10.00">class Vluchteling</text>
<polygon fill="none" stroke="black" points="323.5,-1079 323.5,-1133 448.5,-1133 448.5,-1079 323.5,-1079"/>
<text text-anchor="start" x="328.5" y="-1120" font-family="Arial" font-size="10.00">&#45; naam: String</text>
<text text-anchor="start" x="328.5" y="-1109" font-family="Arial" font-size="10.00">&#45; landVanHerkomst: Land</text>
<text text-anchor="start" x="328.5" y="-1098" font-family="Arial" font-size="10.00">&#45; dossier: Dossier</text>
<text text-anchor="start" x="345" y="-1087" font-family="Arial" font-size="10.00">&#45; huidigAZC: AZC</text>
<polygon fill="none" stroke="black" points="323.5,-1025 323.5,-1079 448.5,-1079 448.5,-1025 323.5,-1025"/>
<text text-anchor="start" x="328.5" y="-1066" font-family="Arial" font-size="10.00">+ Vluchteling(...)</text>
<text text-anchor="start" x="328.5" y="-1055" font-family="Arial" font-size="10.00">+ plaatsInAZC(AZC): void</text>
<text text-anchor="start" x="328.5" y="-1044" font-family="Arial" font-size="10.00">+ getHuidigAZC(): AZC</text>
<text text-anchor="start" x="334.5" y="-1033" font-family="Arial" font-size="10.00">+ getDossier(): Dossier</text>
</g>
<!-- Vluchteling&#45;&gt;Validatie -->
<g id="edge28" class="edge">
<title>Vluchteling&#45;&gt;Validatie</title>
<path fill="none" stroke="black" d="M448.33,-1039.25C669.1,-1039.25 1396,-1039.25 1396,-1039.25 1396,-1039.25 1396,-600.29 1396,-600.29"/>
<polygon fill="black" stroke="black" points="1396,-593.29 1399.15,-600.29 1396,-596.79 1396,-600.29 1396,-600.29 1396,-600.29 1396,-596.79 1392.85,-600.29 1396,-593.29 1396,-593.29"/>
<text text-anchor="middle" x="917.5" y="-423.8" font-family="Arial" font-size="9.00">valideert</text>
</g>
<!-- Vluchteling&#45;&gt;Land -->
<g id="edge7" class="edge">
<title>Vluchteling&#45;&gt;Land</title>
<path fill="none" stroke="black" d="M448.11,-1090C448.11,-1090 682.29,-1090 682.29,-1090"/>
<polygon fill="black" stroke="black" points="689.29,-1090 682.29,-1093.15 685.79,-1090 682.29,-1090 682.29,-1090 682.29,-1090 685.79,-1090 682.29,-1086.85 689.29,-1090 689.29,-1090"/>
<text text-anchor="middle" x="555.5" y="-1092.8" font-family="Arial" font-size="9.00">landVanHerkomst</text>
</g>
<!-- Dossier -->
<g id="node5" class="node">
<title>Dossier</title>
<polygon fill="#e8eef7" stroke="transparent" points="655,-841 655,-862 822,-862 822,-841 655,-841"/>
<polygon fill="none" stroke="black" points="655,-841 655,-862 822,-862 822,-841 655,-841"/>
<text text-anchor="start" x="706.5" y="-850" font-family="Arial" font-weight="bold" font-size="10.00">class Dossier</text>
<polygon fill="none" stroke="black" points="655,-798 655,-841 822,-841 822,-798 655,-798"/>
<text text-anchor="start" x="660" y="-828" font-family="Arial" font-size="10.00">&#45; uitspraak: String</text>
<text text-anchor="start" x="660" y="-817" font-family="Arial" font-size="10.00">&#45; observers: List&lt;DossierObserver&gt;</text>
<text text-anchor="start" x="690" y="-806" font-family="Arial" font-size="10.00">&#45; eigenaar: Vluchteling</text>
<polygon fill="none" stroke="black" points="655,-744 655,-798 822,-798 822,-744 655,-744"/>
<text text-anchor="start" x="660" y="-785" font-family="Arial" font-size="10.00">+ setUitspraak(String): void</text>
<text text-anchor="start" x="660" y="-774" font-family="Arial" font-size="10.00">+ voegObserverToe(...): void</text>
<text text-anchor="start" x="660" y="-763" font-family="Arial" font-size="10.00">+ verwijderObserver(...): void</text>
<text text-anchor="start" x="666" y="-752" font-family="Arial" font-size="10.00">+ stuurNotificatie(...): void</text>
</g>
<!-- Vluchteling&#45;&gt;Dossier -->
<g id="edge8" class="edge">
<title>Vluchteling&#45;&gt;Dossier</title>
<path fill="none" stroke="black" d="M448.22,-1028.25C508.01,-1028.25 589,-1028.25 589,-1028.25 589,-1028.25 589,-854 589,-854 589,-854 647.35,-854 647.35,-854"/>
<polygon fill="black" stroke="black" points="654.35,-854 647.35,-857.15 650.85,-854 647.35,-854 647.35,-854 647.35,-854 650.85,-854 647.35,-850.85 654.35,-854 654.35,-854"/>
<text text-anchor="middle" x="555.5" y="-866.8" font-family="Arial" font-size="9.00">dossier</text>
</g>
<!-- AZC -->
<g id="node7" class="node">
<title>AZC</title>
<polygon fill="#e8eef7" stroke="transparent" points="621,-990 621,-1011 855,-1011 855,-990 621,-990"/>
<polygon fill="none" stroke="black" points="621,-990 621,-1011 855,-1011 855,-990 621,-990"/>
<text text-anchor="start" x="714" y="-999" font-family="Arial" font-weight="bold" font-size="10.00">class AZC</text>
<polygon fill="none" stroke="black" points="621,-947 621,-990 855,-990 855,-947 621,-947"/>
<text text-anchor="start" x="626" y="-977" font-family="Arial" font-size="10.00">&#45; naam/straat/huisnummer/postcode: String</text>
<text text-anchor="start" x="626" y="-966" font-family="Arial" font-size="10.00">&#45; gemeente: Gemeente</text>
<text text-anchor="start" x="626" y="-955" font-family="Arial" font-size="10.00">&#45; gehuisvesteVluchtelingen: List&lt;Vluchteling&gt;</text>
<polygon fill="none" stroke="black" points="621,-893 621,-947 855,-947 855,-893 621,-893"/>
<text text-anchor="start" x="626" y="-934" font-family="Arial" font-size="10.00">~ voegVluchtelingToe(...): void</text>
<text text-anchor="start" x="626" y="-923" font-family="Arial" font-size="10.00">~ verwijderVluchteling(...): void</text>
<text text-anchor="start" x="626" y="-912" font-family="Arial" font-size="10.00">+ getGemeente(): Gemeente</text>
<text text-anchor="start" x="626" y="-901" font-family="Arial" font-size="10.00">+ getGehuisvesteVluchtelingen(): List&lt;Vluchteling&gt;</text>
</g>
<!-- Vluchteling&#45;&gt;AZC -->
<g id="edge9" class="edge">
<title>Vluchteling&#45;&gt;AZC</title>
<path fill="none" stroke="black" d="M448.08,-1031C524.58,-1031 644,-1031 644,-1031 644,-1031 644,-1018.06 644,-1018.06"/>
<polygon fill="black" stroke="black" points="644,-1011.06 647.15,-1018.06 644,-1014.56 644,-1018.06 644,-1018.06 644,-1018.06 644,-1014.56 640.85,-1018.07 644,-1011.06 644,-1011.06"/>
<text text-anchor="middle" x="555.5" y="-1023.8" font-family="Arial" font-size="9.00">huidigAZC</text>
</g>
<!-- DossierSubject -->
<g id="node11" class="node">
<title>DossierSubject</title>
<polygon fill="#e8eef7" stroke="transparent" points="670,-673 670,-694 807,-694 807,-673 670,-673"/>
<polygon fill="none" stroke="black" points="670,-673 670,-694 807,-694 807,-673 670,-673"/>
<text text-anchor="start" x="681" y="-682" font-family="Arial" font-weight="bold" font-size="10.00">interface DossierSubject</text>
<polygon fill="none" stroke="black" points="670,-630 670,-673 807,-673 807,-630 670,-630"/>
<text text-anchor="start" x="675" y="-660" font-family="Arial" font-size="10.00">+ voegObserverToe(...): void</text>
<text text-anchor="start" x="675" y="-649" font-family="Arial" font-size="10.00">+ verwijderObserver(...): void</text>
<text text-anchor="start" x="681" y="-638" font-family="Arial" font-size="10.00">+ stuurNotificatie(...): void</text>
</g>
<!-- Dossier&#45;&gt;DossierSubject -->
<g id="edge1" class="edge">
<title>Dossier&#45;&gt;DossierSubject</title>
<path fill="none" stroke="black" stroke-dasharray="5,2" d="M738,-743.61C738,-743.61 738,-701.02 738,-701.02"/>
<polygon fill="none" stroke="black" points="740.45,-701.02 738,-694.02 735.55,-701.02 740.45,-701.02"/>
</g>
<!-- DossierObserver -->
<g id="node12" class="node">
<title>DossierObserver</title>
<polygon fill="#e8eef7" stroke="transparent" points="1021,-672 1021,-693 1152,-693 1152,-672 1021,-672"/>
<polygon fill="none" stroke="black" points="1021,-672 1021,-693 1152,-693 1152,-672 1021,-672"/>
<text text-anchor="start" x="1026" y="-681" font-family="Arial" font-weight="bold" font-size="10.00">interface DossierObserver</text>
<polygon fill="none" stroke="black" points="1021,-651 1021,-672 1152,-672 1152,-651 1021,-651"/>
<text text-anchor="start" x="1026" y="-659" font-family="Arial" font-size="10.00">+ update(Bericht): void</text>
</g>
<!-- Dossier&#45;&gt;DossierObserver -->
<g id="edge13" class="edge">
<title>Dossier&#45;&gt;DossierObserver</title>
<path fill="none" stroke="black" d="M817,-743.91C817,-711.97 817,-679 817,-679 817,-679 1013.2,-679 1013.2,-679"/>
<polygon fill="black" stroke="black" points="1020.2,-679 1013.2,-682.15 1016.7,-679 1013.2,-679 1013.2,-679 1013.2,-679 1016.7,-679 1013.2,-675.85 1020.2,-679 1020.2,-679"/>
<text text-anchor="middle" x="917.5" y="-718.8" font-family="Arial" font-size="9.00">observers</text>
</g>
<!-- Bericht -->
<g id="node13" class="node">
<title>Bericht</title>
<polygon fill="#e8eef7" stroke="transparent" points="1005,-604 1005,-625 1168,-625 1168,-604 1005,-604"/>
<polygon fill="none" stroke="black" points="1005,-604 1005,-625 1168,-625 1168,-604 1005,-604"/>
<text text-anchor="start" x="1056" y="-613" font-family="Arial" font-weight="bold" font-size="10.00">class Bericht</text>
<polygon fill="none" stroke="black" points="1005,-561 1005,-604 1168,-604 1168,-561 1005,-561"/>
<text text-anchor="start" x="1010" y="-591" font-family="Arial" font-size="10.00">&#45; vluchteling: Vluchteling</text>
<text text-anchor="start" x="1010" y="-580" font-family="Arial" font-size="10.00">&#45; typeBericht/inhoud/kamer: String</text>
<text text-anchor="start" x="1042.5" y="-569" font-family="Arial" font-size="10.00">&#45; verwerkt: boolean</text>
<polygon fill="none" stroke="black" points="1005,-518 1005,-561 1168,-561 1168,-518 1005,-518"/>
<text text-anchor="start" x="1010" y="-548" font-family="Arial" font-size="10.00">+ markeerAlsVerwerkt(String): void</text>
<text text-anchor="start" x="1010" y="-537" font-family="Arial" font-size="10.00">+ isVerwerkt(): boolean</text>
<text text-anchor="start" x="1042" y="-526" font-family="Arial" font-size="10.00">+ getKamer(): String</text>
</g>
<!-- Dossier&#45;&gt;Bericht -->
<g id="edge14" class="edge">
<title>Dossier&#45;&gt;Bericht</title>
<path fill="none" stroke="black" d="M812,-743.81C812,-689.28 812,-616.75 812,-616.75 812,-616.75 997.16,-616.75 997.16,-616.75"/>
<polygon fill="black" stroke="black" points="1004.16,-616.75 997.16,-619.9 1000.66,-616.75 997.16,-616.75 997.16,-616.75 997.16,-616.75 1000.66,-616.75 997.16,-613.6 1004.16,-616.75 1004.16,-616.75"/>
<text text-anchor="middle" x="917.5" y="-672.8" font-family="Arial" font-size="9.00">maakt</text>
</g>
<!-- Gemeente -->
<g id="node6" class="node">
<title>Gemeente</title>
<polygon fill="#e8eef7" stroke="transparent" points="1004,-966 1004,-987 1169,-987 1169,-966 1004,-966"/>
<polygon fill="none" stroke="black" points="1004,-966 1004,-987 1169,-987 1169,-966 1004,-966"/>
<text text-anchor="start" x="1049.5" y="-975" font-family="Arial" font-weight="bold" font-size="10.00">class Gemeente</text>
<polygon fill="none" stroke="black" points="1004,-901 1004,-966 1169,-966 1169,-901 1004,-901"/>
<text text-anchor="start" x="1009" y="-953" font-family="Arial" font-size="10.00">&#45; naam: String</text>
<text text-anchor="start" x="1009" y="-942" font-family="Arial" font-size="10.00">&#45; aantalInwoners: int</text>
<text text-anchor="start" x="1009" y="-931" font-family="Arial" font-size="10.00">&#45; aangebodenPlaatsen: int</text>
<text text-anchor="start" x="1009" y="-920" font-family="Arial" font-size="10.00">&#45; aantalGeplaatsteVluchtelingen: int</text>
<text text-anchor="start" x="1045.5" y="-909" font-family="Arial" font-size="10.00">&#45; azcs: List&lt;AZC&gt;</text>
<polygon fill="none" stroke="black" points="1004,-836 1004,-901 1169,-901 1169,-836 1004,-836"/>
<text text-anchor="start" x="1009" y="-888" font-family="Arial" font-size="10.00">+ getVrijePlaatsen(): int</text>
<text text-anchor="start" x="1009" y="-877" font-family="Arial" font-size="10.00">+ getRelatieveBelasting(): double</text>
<text text-anchor="start" x="1009" y="-866" font-family="Arial" font-size="10.00">~ voegVluchtelingToe(): void</text>
<text text-anchor="start" x="1009" y="-855" font-family="Arial" font-size="10.00">~ verwijderVluchteling(): void</text>
<text text-anchor="start" x="1028.5" y="-844" font-family="Arial" font-size="10.00">+ getAzcs(): List&lt;AZC&gt;</text>
</g>
<!-- Gemeente&#45;&gt;Validatie -->
<g id="edge29" class="edge">
<title>Gemeente&#45;&gt;Validatie</title>
<path fill="none" stroke="black" d="M1168.79,-912C1243.25,-912 1341,-912 1341,-912 1341,-912 1341,-600.01 1341,-600.01"/>
<polygon fill="black" stroke="black" points="1341,-593.01 1344.15,-600.01 1341,-596.51 1341,-600.01 1341,-600.01 1341,-600.01 1341,-596.51 1337.85,-600.01 1341,-593.01 1341,-593.01"/>
<text text-anchor="middle" x="1239" y="-764.8" font-family="Arial" font-size="9.00">valideert</text>
</g>
<!-- Gemeente&#45;&gt;AZC -->
<g id="edge10" class="edge">
<title>Gemeente&#45;&gt;AZC</title>
<path fill="none" stroke="black" d="M1003.09,-924.5C1003.09,-924.5 862.16,-924.5 862.16,-924.5"/>
<polygon fill="black" stroke="black" points="855.16,-924.5 862.16,-921.35 858.66,-924.5 862.16,-924.5 862.16,-924.5 862.16,-924.5 858.66,-924.5 862.16,-927.65 855.16,-924.5 855.16,-924.5"/>
<text text-anchor="middle" x="917.5" y="-954.8" font-family="Arial" font-size="9.00">azcs</text>
</g>
<!-- AZC&#45;&gt;Vluchteling -->
<g id="edge11" class="edge">
<title>AZC&#45;&gt;Vluchteling</title>
<path fill="none" stroke="black" d="M667,-1011.41C667,-1024.09 667,-1033.75 667,-1033.75 667,-1033.75 455.32,-1033.75 455.32,-1033.75"/>
<polygon fill="black" stroke="black" points="448.32,-1033.75 455.32,-1030.6 451.82,-1033.75 455.32,-1033.75 455.32,-1033.75 455.32,-1033.75 451.82,-1033.75 455.32,-1036.9 448.32,-1033.75 448.32,-1033.75"/>
<text text-anchor="middle" x="555.5" y="-968.8" font-family="Arial" font-size="9.00">bewoners</text>
</g>
<!-- AZC&#45;&gt;Gemeente -->
<g id="edge12" class="edge">
<title>AZC&#45;&gt;Gemeente</title>
<path fill="none" stroke="black" d="M855.33,-956C855.33,-956 996.49,-956 996.49,-956"/>
<polygon fill="black" stroke="black" points="1003.49,-956 996.49,-959.15 999.99,-956 996.49,-956 996.49,-956 996.49,-956 999.99,-956 996.49,-952.85 1003.49,-956 1003.49,-956"/>
<text text-anchor="middle" x="917.5" y="-914.8" font-family="Arial" font-size="9.00">gemeente</text>
</g>
<!-- PlaatsingsContext -->
<g id="node16" class="node">
<title>PlaatsingsContext</title>
<polygon fill="#e8eef7" stroke="transparent" points="649,-290 649,-311 827,-311 827,-290 649,-290"/>
<polygon fill="none" stroke="black" points="649,-290 649,-311 827,-311 827,-290 649,-290"/>
<text text-anchor="start" x="682" y="-299" font-family="Arial" font-weight="bold" font-size="10.00">class PlaatsingsContext</text>
<polygon fill="none" stroke="black" points="649,-269 649,-290 827,-290 827,-269 649,-269"/>
<text text-anchor="start" x="654" y="-277" font-family="Arial" font-size="10.00">&#45; actieveStrategie: PlaatsingsStrategie</text>
<polygon fill="none" stroke="black" points="649,-237 649,-269 827,-269 827,-237 649,-237"/>
<text text-anchor="start" x="654" y="-256" font-family="Arial" font-size="10.00">+ setStrategie(...): void</text>
<text text-anchor="start" x="654" y="-245" font-family="Arial" font-size="10.00">+ voerPlaatsingUit(...): Gemeente</text>
</g>
<!-- COAMedewerker&#45;&gt;PlaatsingsContext -->
<g id="edge18" class="edge">
<title>COAMedewerker&#45;&gt;PlaatsingsContext</title>
<path fill="none" stroke="black" d="M488.3,-846C508.2,-846 523,-846 523,-846 523,-846 523,-274 523,-274 523,-274 642,-274 642,-274"/>
<polygon fill="black" stroke="black" points="649,-274 642,-277.15 645.5,-274 642,-274 642,-274 642,-274 645.5,-274 642,-270.85 649,-274 649,-274"/>
<text text-anchor="middle" x="555.5" y="-312.8" font-family="Arial" font-size="9.00">gebruikt</text>
</g>
<!-- AZCMedewerker -->
<g id="node9" class="node">
<title>AZCMedewerker</title>
<polygon fill="#e8eef7" stroke="transparent" points="297.5,-979 297.5,-1000 474.5,-1000 474.5,-979 297.5,-979"/>
<polygon fill="none" stroke="black" points="297.5,-979 297.5,-1000 474.5,-1000 474.5,-979 297.5,-979"/>
<text text-anchor="start" x="334.5" y="-988" font-family="Arial" font-weight="bold" font-size="10.00">class AZCMedewerker</text>
<polygon fill="none" stroke="black" points="297.5,-958 297.5,-979 474.5,-979 474.5,-958 297.5,-958"/>
<text text-anchor="start" x="302.5" y="-966" font-family="Arial" font-size="10.00">&#45; naam: String</text>
<polygon fill="none" stroke="black" points="297.5,-937 297.5,-958 474.5,-958 474.5,-937 297.5,-937"/>
<text text-anchor="start" x="302.5" y="-945" font-family="Arial" font-size="10.00">+ verwerkBericht(Bericht, String): void</text>
</g>
<!-- AZCMedewerker&#45;&gt;Bericht -->
<g id="edge19" class="edge">
<title>AZCMedewerker&#45;&gt;Bericht</title>
<path fill="none" stroke="black" d="M474.25,-969C515.67,-969 556,-969 556,-969 556,-969 556,-612.38 556,-612.38 556,-612.38 997.35,-612.38 997.35,-612.38"/>
<polygon fill="black" stroke="black" points="1004.35,-612.38 997.35,-615.53 1000.85,-612.38 997.35,-612.38 997.35,-612.38 997.35,-612.38 1000.85,-612.38 997.35,-609.23 1004.35,-612.38 1004.35,-612.38"/>
<text text-anchor="middle" x="738" y="-375.8" font-family="Arial" font-size="9.00">verwerkt</text>
</g>
<!-- RapportageService -->
<g id="node22" class="node">
<title>RapportageService</title>
<polygon fill="#e8eef7" stroke="transparent" points="645,-37 645,-58 832,-58 832,-37 645,-37"/>
<polygon fill="none" stroke="black" points="645,-37 645,-58 832,-58 832,-37 645,-37"/>
<text text-anchor="start" x="680.5" y="-46" font-family="Arial" font-weight="bold" font-size="10.00">class RapportageService</text>
<polygon fill="none" stroke="black" points="645,-16 645,-37 832,-37 832,-16 645,-16"/>
<text text-anchor="start" x="650" y="-24" font-family="Arial" font-size="10.00">+ genereerManagementRapport(...): void</text>
</g>
<!-- Beheerder&#45;&gt;RapportageService -->
<g id="edge20" class="edge">
<title>Beheerder&#45;&gt;RapportageService</title>
<path fill="none" stroke="black" d="M479,-738.85C479,-588.99 479,-37 479,-37 479,-37 637.5,-37 637.5,-37"/>
<polygon fill="black" stroke="black" points="644.5,-37 637.5,-40.15 641,-37 637.5,-37 637.5,-37 637.5,-37 641,-37 637.5,-33.85 644.5,-37 644.5,-37"/>
<text text-anchor="middle" x="555.5" y="-138.8" font-family="Arial" font-size="9.00">gebruikt</text>
</g>
<!-- Bericht&#45;&gt;Validatie -->
<g id="edge30" class="edge">
<title>Bericht&#45;&gt;Validatie</title>
<path fill="none" stroke="black" d="M1167.57,-572C1167.57,-572 1278.64,-572 1278.64,-572"/>
<polygon fill="black" stroke="black" points="1285.64,-572 1278.64,-575.15 1282.14,-572 1278.64,-572 1278.64,-572 1278.64,-572 1282.14,-572 1278.64,-568.85 1285.64,-572 1285.64,-572"/>
<text text-anchor="middle" x="1239" y="-574.8" font-family="Arial" font-size="9.00">valideert</text>
</g>
<!-- Bericht&#45;&gt;Vluchteling -->
<g id="edge16" class="edge">
<title>Bericht&#45;&gt;Vluchteling</title>
<path fill="none" stroke="black" d="M1004.46,-621.12C961.66,-621.12 918,-621.12 918,-621.12 918,-621.12 918,-1036.5 918,-1036.5 918,-1036.5 455.15,-1036.5 455.15,-1036.5"/>
<polygon fill="black" stroke="black" points="448.15,-1036.5 455.15,-1033.35 451.65,-1036.5 455.15,-1036.5 455.15,-1036.5 455.15,-1036.5 451.65,-1036.5 455.15,-1039.65 448.15,-1036.5 448.15,-1036.5"/>
<text text-anchor="middle" x="738" y="-486.8" font-family="Arial" font-size="9.00">betreft</text>
</g>
<!-- Berichtenbox&#45;&gt;DossierObserver -->
<g id="edge2" class="edge">
<title>Berichtenbox&#45;&gt;DossierObserver</title>
<path fill="none" stroke="black" stroke-dasharray="5,2" d="M828,-604.79C828,-633.09 828,-665 828,-665 828,-665 1013.23,-665 1013.23,-665"/>
<polygon fill="none" stroke="black" points="1013.23,-667.45 1020.23,-665 1013.23,-662.55 1013.23,-667.45"/>
</g>
<!-- Berichtenbox&#45;&gt;Bericht -->
<g id="edge15" class="edge">
<title>Berichtenbox&#45;&gt;Bericht</title>
<path fill="none" stroke="black" d="M833.55,-562C833.55,-562 997.24,-562 997.24,-562"/>
<polygon fill="black" stroke="black" points="1004.24,-562 997.24,-565.15 1000.74,-562 997.24,-562 997.24,-562 997.24,-562 1000.74,-562 997.24,-558.85 1004.24,-562 1004.24,-562"/>
<text text-anchor="middle" x="917.5" y="-567.8" font-family="Arial" font-size="9.00">berichten</text>
</g>
<!-- PlaatsingsStrategie -->
<g id="node15" class="node">
<title>PlaatsingsStrategie</title>
<polygon fill="#e8eef7" stroke="transparent" points="980,-191 980,-212 1192,-212 1192,-191 980,-191"/>
<polygon fill="none" stroke="black" points="980,-191 980,-212 1192,-212 1192,-191 980,-191"/>
<text text-anchor="start" x="1019.5" y="-200" font-family="Arial" font-weight="bold" font-size="10.00">interface PlaatsingsStrategie</text>
<polygon fill="none" stroke="black" points="980,-170 980,-191 1192,-191 1192,-170 980,-170"/>
<text text-anchor="start" x="985" y="-178" font-family="Arial" font-size="10.00">+ kiesGemeente(List&lt;Gemeente&gt;): Gemeente</text>
</g>
<!-- PlaatsingsContext&#45;&gt;PlaatsingsStrategie -->
<g id="edge17" class="edge">
<title>PlaatsingsContext&#45;&gt;PlaatsingsStrategie</title>
<path fill="none" stroke="black" d="M827.19,-274C900.38,-274 992,-274 992,-274 992,-274 992,-219.37 992,-219.37"/>
<polygon fill="black" stroke="black" points="992,-212.37 995.15,-219.37 992,-215.87 992,-219.37 992,-219.37 992,-219.37 992,-215.87 988.85,-219.37 992,-212.37 992,-212.37"/>
<text text-anchor="middle" x="917.5" y="-250.8" font-family="Arial" font-size="9.00">actieveStrategie</text>
</g>
<!-- HoogsteVrijePlaatsenStrategie -->
<g id="node17" class="node">
<title>HoogsteVrijePlaatsenStrategie</title>
<polygon fill="#e8eef7" stroke="transparent" points="649,-191 649,-212 828,-212 828,-191 649,-191"/>
<polygon fill="none" stroke="black" points="649,-191 649,-212 828,-212 828,-191 649,-191"/>
<text text-anchor="start" x="654" y="-200" font-family="Arial" font-weight="bold" font-size="10.00">class HoogsteVrijePlaatsenStrategie</text>
<polygon fill="none" stroke="black" points="649,-170 649,-191 828,-191 828,-170 649,-170"/>
<text text-anchor="start" x="654" y="-178" font-family="Arial" font-size="10.00">+ kiesGemeente(...): Gemeente</text>
</g>
<!-- HoogsteVrijePlaatsenStrategie&#45;&gt;PlaatsingsStrategie -->
<g id="edge3" class="edge">
<title>HoogsteVrijePlaatsenStrategie&#45;&gt;PlaatsingsStrategie</title>
<path fill="none" stroke="black" stroke-dasharray="5,2" d="M827.62,-191C827.62,-191 972.98,-191 972.98,-191"/>
<polygon fill="none" stroke="black" points="972.98,-193.45 979.98,-191 972.98,-188.55 972.98,-193.45"/>
</g>
<!-- LaagsteRelatieveBelastingStrategie -->
<g id="node18" class="node">
<title>LaagsteRelatieveBelastingStrategie</title>
<polygon fill="#e8eef7" stroke="transparent" points="637,-124 637,-145 839,-145 839,-124 637,-124"/>
<polygon fill="none" stroke="black" points="637,-124 637,-145 839,-145 839,-124 637,-124"/>
<text text-anchor="start" x="642" y="-133" font-family="Arial" font-weight="bold" font-size="10.00">class LaagsteRelatieveBelastingStrategie</text>
<polygon fill="none" stroke="black" points="637,-103 637,-124 839,-124 839,-103 637,-103"/>
<text text-anchor="start" x="642" y="-111" font-family="Arial" font-size="10.00">+ kiesGemeente(...): Gemeente</text>
</g>
<!-- LaagsteRelatieveBelastingStrategie&#45;&gt;PlaatsingsStrategie -->
<g id="edge4" class="edge">
<title>LaagsteRelatieveBelastingStrategie&#45;&gt;PlaatsingsStrategie</title>
<path fill="none" stroke="black" stroke-dasharray="5,2" d="M839.12,-124C941.87,-124 1086,-124 1086,-124 1086,-124 1086,-162.8 1086,-162.8"/>
<polygon fill="none" stroke="black" points="1083.55,-162.8 1086,-169.8 1088.45,-162.8 1083.55,-162.8"/>
</g>
<!-- VluchtelingRegistratieActie -->
<g id="node20" class="node">
<title>VluchtelingRegistratieActie</title>
<polygon fill="#e8eef7" stroke="transparent" points="16.5,-672 16.5,-693 181.5,-693 181.5,-672 16.5,-672"/>
<polygon fill="none" stroke="black" points="16.5,-672 16.5,-693 181.5,-693 181.5,-672 16.5,-672"/>
<text text-anchor="start" x="21.5" y="-681" font-family="Arial" font-weight="bold" font-size="10.00">class VluchtelingRegistratieActie</text>
<polygon fill="none" stroke="black" points="16.5,-651 16.5,-672 181.5,-672 181.5,-651 16.5,-651"/>
<text text-anchor="start" x="21.5" y="-659" font-family="Arial" font-size="10.00">&#45; vluchteling: Vluchteling</text>
<polygon fill="none" stroke="black" points="16.5,-630 16.5,-651 181.5,-651 181.5,-630 16.5,-630"/>
<text text-anchor="start" x="21.5" y="-638" font-family="Arial" font-size="10.00">+ VluchtelingRegistratieActie(...)</text>
</g>
<!-- VluchtelingRegistratieActie&#45;&gt;Vluchteling -->
<g id="edge21" class="edge">
<title>VluchtelingRegistratieActie&#45;&gt;Vluchteling</title>
<path fill="none" stroke="black" d="M172,-693.61C172,-795.92 172,-1111.5 172,-1111.5 172,-1111.5 315.89,-1111.5 315.89,-1111.5"/>
<polygon fill="black" stroke="black" points="322.89,-1111.5 315.89,-1114.65 319.39,-1111.5 315.89,-1111.5 315.89,-1111.5 315.89,-1111.5 319.39,-1111.5 315.89,-1108.35 322.89,-1111.5 322.89,-1111.5"/>
<text text-anchor="middle" x="231" y="-845.8" font-family="Arial" font-size="9.00">registreert</text>
</g>
<!-- VluchtelingRegistratieActie&#45;&gt;ActieVerwerker -->
<g id="edge5" class="edge">
<title>VluchtelingRegistratieActie&#45;&gt;ActieVerwerker</title>
<path fill="none" stroke="black" d="M181.13,-651.5C181.13,-651.5 296.46,-651.5 296.46,-651.5"/>
<polygon fill="none" stroke="black" points="296.46,-653.95 303.46,-651.5 296.46,-649.05 296.46,-653.95"/>
</g>
<!-- VluchtelingPlaatsingActie -->
<g id="node21" class="node">
<title>VluchtelingPlaatsingActie</title>
<polygon fill="#e8eef7" stroke="transparent" points="19.5,-584 19.5,-605 177.5,-605 177.5,-584 19.5,-584"/>
<polygon fill="none" stroke="black" points="19.5,-584 19.5,-605 177.5,-605 177.5,-584 19.5,-584"/>
<text text-anchor="start" x="24.5" y="-593" font-family="Arial" font-weight="bold" font-size="10.00">class VluchtelingPlaatsingActie</text>
<polygon fill="none" stroke="black" points="19.5,-552 19.5,-584 177.5,-584 177.5,-552 19.5,-552"/>
<text text-anchor="start" x="24.5" y="-571" font-family="Arial" font-size="10.00">&#45; vluchteling: Vluchteling</text>
<text text-anchor="start" x="39" y="-560" font-family="Arial" font-size="10.00">&#45; nieuwAZC: AZC</text>
<polygon fill="none" stroke="black" points="19.5,-531 19.5,-552 177.5,-552 177.5,-531 19.5,-531"/>
<text text-anchor="start" x="24.5" y="-539" font-family="Arial" font-size="10.00">+ VluchtelingPlaatsingActie(...)</text>
</g>
<!-- VluchtelingPlaatsingActie&#45;&gt;Vluchteling -->
<g id="edge22" class="edge">
<title>VluchtelingPlaatsingActie&#45;&gt;Vluchteling</title>
<path fill="none" stroke="black" d="M177.87,-586.12C206.09,-586.12 231,-586.12 231,-586.12 231,-586.12 231,-1068.5 231,-1068.5 231,-1068.5 315.66,-1068.5 315.66,-1068.5"/>
<polygon fill="black" stroke="black" points="322.66,-1068.5 315.66,-1071.65 319.16,-1068.5 315.66,-1068.5 315.66,-1068.5 315.66,-1068.5 319.16,-1068.5 315.66,-1065.35 322.66,-1068.5 322.66,-1068.5"/>
<text text-anchor="middle" x="231" y="-805.8" font-family="Arial" font-size="9.00">plaatst</text>
</g>
<!-- VluchtelingPlaatsingActie&#45;&gt;AZC -->
<g id="edge23" class="edge">
<title>VluchtelingPlaatsingActie&#45;&gt;AZC</title>
<path fill="none" stroke="black" d="M177.63,-549.38C325.52,-549.38 629,-549.38 629,-549.38 629,-549.38 629,-885.59 629,-885.59"/>
<polygon fill="black" stroke="black" points="629,-892.59 625.85,-885.59 629,-889.09 629,-885.59 629,-885.59 629,-885.59 629,-889.09 632.15,-885.59 629,-892.59 629,-892.59"/>
<text text-anchor="middle" x="385.5" y="-444.8" font-family="Arial" font-size="9.00">doel</text>
</g>
<!-- VluchtelingPlaatsingActie&#45;&gt;ActieVerwerker -->
<g id="edge6" class="edge">
<title>VluchtelingPlaatsingActie&#45;&gt;ActieVerwerker</title>
<path fill="none" stroke="black" d="M99,-605.25C99,-613.19 99,-619.25 99,-619.25 99,-619.25 296.4,-619.25 296.4,-619.25"/>
<polygon fill="none" stroke="black" points="296.4,-621.7 303.4,-619.25 296.4,-616.8 296.4,-621.7"/>
</g>
</g>
</svg>
